<?xml version="1.0" encoding="UTF-8" standalone="no"?>
<!-- Created with Inkscape (http://www.inkscape.org/) -->

<svg
   xmlns:dc="http://purl.org/dc/elements/1.1/"
   xmlns:cc="http://creativecommons.org/ns#"
   xmlns:rdf="http://www.w3.org/1999/02/22-rdf-syntax-ns#"
   xmlns:svg="http://www.w3.org/2000/svg"
   xmlns="http://www.w3.org/2000/svg"
   xmlns:xlink="http://www.w3.org/1999/xlink"
   xmlns:sodipodi="http://sodipodi.sourceforge.net/DTD/sodipodi-0.dtd"
   xmlns:inkscape="http://www.inkscape.org/namespaces/inkscape"
   width="200"
   height="200"
   id="svg5050"
   version="1.1"
   inkscape:version="0.48.5 r10040"
   sodipodi:docname="printer.svg"
   inkscape:export-filename="/Users/odoo/Code/mktng/img/demo/printer_fg.png"
   inkscape:export-xdpi="90"
   inkscape:export-ydpi="90">
  <defs
     id="defs5052">
    <linearGradient
       id="linearGradient5593">
      <stop
         style="stop-color:#303139;stop-opacity:1;"
         offset="0"
         id="stop5595" />
      <stop
         style="stop-color:#545663;stop-opacity:0;"
         offset="1"
         id="stop5597" />
    </linearGradient>
    <linearGradient
       inkscape:collect="always"
       xlink:href="#linearGradient5593"
       id="linearGradient5829"
       gradientUnits="userSpaceOnUse"
       gradientTransform="translate(-47.376155,85.559921)"
       x1="143.54268"
       y1="902.45551"
       x2="143.54266"
       y2="939.2251" />
  </defs>
  <sodipodi:namedview
     id="base"
     pagecolor="#ffffff"
     bordercolor="#666666"
     borderopacity="1.0"
     inkscape:pageopacity="0.0"
     inkscape:pageshadow="2"
     inkscape:zoom="2"
     inkscape:cx="170.96036"
     inkscape:cy="81.102081"
     inkscape:document-units="px"
     inkscape:current-layer="layer1"
     showgrid="false"
     inkscape:window-width="1280"
     inkscape:window-height="707"
     inkscape:window-x="0"
     inkscape:window-y="0"
     inkscape:window-maximized="1" />
  <metadata
     id="metadata5055">
    <rdf:RDF>
      <cc:Work
         rdf:about="">
        <dc:format>image/svg+xml</dc:format>
        <dc:type
           rdf:resource="http://purl.org/dc/dcmitype/StillImage" />
        <dc:title></dc:title>
      </cc:Work>
    </rdf:RDF>
  </metadata>
  <g
     inkscape:label="Layer 1"
     inkscape:groupmode="layer"
     id="layer1"
     transform="translate(0,-852.36218)">
    <g
       id="g6006"
       inkscape:export-filename="/Users/odoo/Code/mktng/img/demo/printer_receipt.png"
       inkscape:export-xdpi="90"
       inkscape:export-ydpi="90">
      <rect
         ry="3.1111577"
         y="885.48499"
         x="43.133514"
         height="139.30003"
         width="113.13708"
         id="rect5831"
         style="fill:#545663;fill-opacity:1;stroke:none" />
      <rect
         style="fill:#696c7c;fill-opacity:1;stroke:none"
         id="rect5833"
         width="113.13708"
         height="92.630989"
         x="43.133514"
         y="885.48499"
         ry="3" />
      <rect
         style="fill:#545663;fill-opacity:1;stroke:none"
         id="rect5835"
         width="86.267021"
         height="21.920309"
         x="56.568542"
         y="939.93219"
         ry="3" />
      <rect
         ry="3"
         y="929.32556"
         x="56.568542"
         height="21.920309"
         width="86.267021"
         id="rect5837"
         style="fill:#787b8d;fill-opacity:1;stroke:none" />
      <rect
         ry="3"
         y="936.39667"
         x="62.225395"
         height="7.0710669"
         width="74.953316"
         id="rect5839"
         style="fill:#545663;fill-opacity:1;stroke:none" />
      <rect
         style="fill:#545663;fill-opacity:1;stroke:none"
         id="rect5841"
         width="20.506094"
         height="9.8994942"
         x="126.57212"
         y="900.33423"
         ry="4.2000003" />
      <rect
         ry="4.2000003"
         y="985.18707"
         x="137.17873"
         height="9.8994942"
         width="9.8994923"
         id="rect5843"
         style="fill:#7fce90;fill-opacity:1;stroke:none" />
    </g>
    <g
       id="g5901">
      <rect
         y="944.58899"
         x="64"
         height="77.094948"
         width="73"
         id="rect5845"
         style="fill:#f3f3f3;fill-opacity:1;stroke:#cdcdcd;stroke-width:2;stroke-miterlimit:4;stroke-opacity:1;stroke-dasharray:none" />
      <g
         transform="translate(0,-15)"
         id="g5885">
        <g
           id="g5857">
          <rect
             style="opacity:0.74166667;fill:#cdcdcd;fill-opacity:1;stroke:none"
             id="rect5853"
             width="32.169823"
             height="3.8396425"
             x="70.830177"
             y="975.19232" />
          <rect
             y="975.19232"
             x="118.83018"
             height="3.8396425"
             width="12.169823"
             id="rect5855"
             style="opacity:0.74166667;fill:#cdcdcd;fill-opacity:1;stroke:none" />
          <rect
             y="965.19232"
             x="84.330177"
             height="3.8396425"
             width="32.169823"
             id="rect5899"
             style="opacity:0.74166667;fill:#cdcdcd;fill-opacity:1;stroke:none" />
        </g>
        <g
           id="g5861"
           transform="translate(0,8)">
          <rect
             y="975.19232"
             x="70.830177"
             height="3.8396425"
             width="38.169823"
             id="rect5863"
             style="opacity:0.74166667;fill:#cdcdcd;fill-opacity:1;stroke:none" />
          <rect
             style="opacity:0.74166667;fill:#cdcdcd;fill-opacity:1;stroke:none"
             id="rect5865"
             width="12.169823"
             height="3.8396425"
             x="118.83018"
             y="975.19232" />
        </g>
        <g
           transform="translate(0,16)"
           id="g5867">
          <rect
             style="opacity:0.74166667;fill:#cdcdcd;fill-opacity:1;stroke:none"
             id="rect5869"
             width="24.169823"
             height="3.8396425"
             x="70.830177"
             y="975.19232" />
          <rect
             y="975.19232"
             x="118.83018"
             height="3.8396425"
             width="12.169823"
             id="rect5871"
             style="opacity:0.74166667;fill:#cdcdcd;fill-opacity:1;stroke:none" />
        </g>
        <g
           id="g5873"
           transform="translate(0,23.5)">
          <rect
             y="975.19232"
             x="70.830177"
             height="3.8396425"
             width="30.669823"
             id="rect5875"
             style="opacity:0.74166667;fill:#cdcdcd;fill-opacity:1;stroke:none" />
          <rect
             style="opacity:0.74166667;fill:#cdcdcd;fill-opacity:1;stroke:none"
             id="rect5877"
             width="17.169823"
             height="3.8396425"
             x="113.83018"
             y="975.19232" />
        </g>
      </g>
      <g
         id="g5879"
         transform="matrix(1,0,0,1.5208818,0,-485.45996)">
        <rect
           style="opacity:0.74166667;fill:#cdcdcd;fill-opacity:1;stroke:none"
           id="rect5883"
           width="17.169823"
           height="3.8396425"
           x="113.83018"
           y="975.19232" />
      </g>
    </g>
    <g
       id="g5823"
       transform="translate(260.9224,-6.363961)">
      <rect
         ry="4.5"
         y="881.9494"
         x="14.849245"
         height="148.49243"
         width="171.82695"
         id="rect5077"
         style="fill:#e9eaef;fill-opacity:1;stroke:none" />
      <rect
         style="fill:#c9cad1;fill-opacity:1;stroke:none"
         id="rect5587"
         width="171.82695"
         height="46.669056"
         x="14.849245"
         y="983.77277"
         ry="1.4142859" />
      <rect
         style="fill:url(#linearGradient5829);fill-opacity:1;stroke:none"
         id="rect5591"
         width="161.92744"
         height="37.476665"
         x="19.798988"
         y="988.01538"
         ry="1.1357145" />
      <rect
         ry="1.1357145"
         y="988.01538"
         x="19.798988"
         height="37.476665"
         width="161.92744"
         id="rect5589"
         style="fill:#545663;fill-opacity:1;stroke:none" />
    </g>
    <g
       id="g5762"
       transform="translate(213.54625,31.69596)">
      <rect
         style="fill:#6f7283;fill-opacity:1;stroke:none"
         id="rect5611"
         width="151.42744"
         height="108.0061"
         x="71.67514"
         y="851.42609"
         ry="3.2730794" />
      <rect
         ry="3.1111577"
         y="851.26923"
         x="76.67514"
         height="102.66296"
         width="141.42744"
         id="rect5613"
         style="fill:#545663;fill-opacity:1;stroke:none" />
      <rect
         style="fill:#e9eaef;fill-opacity:1;stroke:none"
         id="rect5601"
         width="165.92744"
         height="41.476665"
         x="65.17514"
         y="948.95551"
         ry="1.2569329" />
      <rect
         ry="1.2569329"
         y="954.45551"
         x="65.17514"
         height="41.476665"
         width="165.92744"
         id="rect5603"
         style="fill:#c9cad1;fill-opacity:1;stroke:none" />
      <rect
         ry="1.2569329"
         y="972.36218"
         x="84"
         height="5.5"
         width="53"
         id="rect5605"
         style="fill:#e9eaef;fill-opacity:1;stroke:none" />
      <path
         transform="matrix(1,0,0,1.0416667,0,740.71635)"
         d="m 210,225.5 c 0,3.31371 -3.02208,6 -6.75,6 -3.72792,0 -6.75,-2.68629 -6.75,-6 0,-3.31371 3.02208,-6 6.75,-6 3.72792,0 6.75,2.68629 6.75,6 z"
         sodipodi:ry="6"
         sodipodi:rx="6.75"
         sodipodi:cy="225.5"
         sodipodi:cx="203.25"
         id="path5609"
         style="fill:#545663;fill-opacity:1;stroke:none"
         sodipodi:type="arc" />
      <g
         transform="translate(0,-46)"
         id="g5728">
        <g
           transform="translate(8,56)"
           id="g5730">
          <rect
             style="fill:#85b08f;fill-opacity:1;stroke:none"
             id="rect5732"
             width="24"
             height="38.5"
             x="82.5"
             y="98.5"
             transform="translate(0,752.36218)" />
          <rect
             y="841.86218"
             x="82.5"
             height="38.5"
             width="24"
             id="rect5734"
             style="fill:#7fce90;fill-opacity:1;stroke:none" />
          <path
             sodipodi:type="arc"
             style="fill:#c5eace;fill-opacity:1;stroke:none"
             id="path5736"
             sodipodi:cx="95.25"
             sodipodi:cy="109.5"
             sodipodi:rx="5.25"
             sodipodi:ry="4.5"
             d="m 100.5,109.5 c 0,2.48528 -2.350505,4.5 -5.25,4.5 -2.899495,0 -5.25,-2.01472 -5.25,-4.5 0,-2.48528 2.350505,-4.5 5.25,-4.5 2.899495,0 5.25,2.01472 5.25,4.5 z"
             transform="matrix(1.7619048,0,0,1.7777778,-73.571429,667.19551)" />
        </g>
        <g
           transform="translate(36.666664,56)"
           id="g5738">
          <rect
             transform="translate(0,752.36218)"
             y="98.5"
             x="82.5"
             height="38.5"
             width="24"
             id="rect5740"
             style="fill:#85b08f;fill-opacity:1;stroke:none" />
          <rect
             style="fill:#7fce90;fill-opacity:1;stroke:none"
             id="rect5742"
             width="24"
             height="38.5"
             x="82.5"
             y="841.86218" />
          <path
             transform="matrix(1.7619048,0,0,1.7777778,-73.571429,667.19551)"
             d="m 100.5,109.5 c 0,2.48528 -2.350505,4.5 -5.25,4.5 -2.899495,0 -5.25,-2.01472 -5.25,-4.5 0,-2.48528 2.350505,-4.5 5.25,-4.5 2.899495,0 5.25,2.01472 5.25,4.5 z"
             sodipodi:ry="4.5"
             sodipodi:rx="5.25"
             sodipodi:cy="109.5"
             sodipodi:cx="95.25"
             id="path5744"
             style="fill:#c5eace;fill-opacity:1;stroke:none"
             sodipodi:type="arc" />
        </g>
        <g
           id="g5746"
           transform="translate(65.333328,56)">
          <rect
             style="fill:#85b08f;fill-opacity:1;stroke:none"
             id="rect5748"
             width="24"
             height="38.5"
             x="82.5"
             y="98.5"
             transform="translate(0,752.36218)" />
          <rect
             y="841.86218"
             x="82.5"
             height="38.5"
             width="24"
             id="rect5750"
             style="fill:#7fce90;fill-opacity:1;stroke:none" />
          <path
             sodipodi:type="arc"
             style="fill:#c5eace;fill-opacity:1;stroke:none"
             id="path5752"
             sodipodi:cx="95.25"
             sodipodi:cy="109.5"
             sodipodi:rx="5.25"
             sodipodi:ry="4.5"
             d="m 100.5,109.5 c 0,2.48528 -2.350505,4.5 -5.25,4.5 -2.899495,0 -5.25,-2.01472 -5.25,-4.5 0,-2.48528 2.350505,-4.5 5.25,-4.5 2.899495,0 5.25,2.01472 5.25,4.5 z"
             transform="matrix(1.7619048,0,0,1.7777778,-73.571429,667.19551)" />
        </g>
        <g
           id="g5754"
           transform="translate(94,56)">
          <rect
             style="fill:#85b08f;fill-opacity:1;stroke:none"
             id="rect5756"
             width="24"
             height="38.5"
             x="82.5"
             y="98.5"
             transform="translate(0,752.36218)" />
          <rect
             y="841.86218"
             x="82.5"
             height="38.5"
             width="24"
             id="rect5758"
             style="fill:#7fce90;fill-opacity:1;stroke:none" />
          <path
             sodipodi:type="arc"
             style="fill:#c5eace;fill-opacity:1;stroke:none"
             id="path5760"
             sodipodi:cx="95.25"
             sodipodi:cy="109.5"
             sodipodi:rx="5.25"
             sodipodi:ry="4.5"
             d="m 100.5,109.5 c 0,2.48528 -2.350505,4.5 -5.25,4.5 -2.899495,0 -5.25,-2.01472 -5.25,-4.5 0,-2.48528 2.350505,-4.5 5.25,-4.5 2.899495,0 5.25,2.01472 5.25,4.5 z"
             transform="matrix(1.7619048,0,0,1.7777778,-73.571429,667.19551)" />
        </g>
      </g>
      <g
         id="g5710">
        <g
           id="g5621"
           transform="translate(8,56)">
          <rect
             transform="translate(0,752.36218)"
             y="98.5"
             x="82.5"
             height="38.5"
             width="24"
             id="rect5615"
             style="fill:#85b08f;fill-opacity:1;stroke:none" />
          <rect
             style="fill:#7fce90;fill-opacity:1;stroke:none"
             id="rect5617"
             width="24"
             height="38.5"
             x="82.5"
             y="841.86218" />
          <path
             transform="matrix(1.7619048,0,0,1.7777778,-73.571429,667.19551)"
             d="m 100.5,109.5 c 0,2.48528 -2.350505,4.5 -5.25,4.5 -2.899495,0 -5.25,-2.01472 -5.25,-4.5 0,-2.48528 2.350505,-4.5 5.25,-4.5 2.899495,0 5.25,2.01472 5.25,4.5 z"
             sodipodi:ry="4.5"
             sodipodi:rx="5.25"
             sodipodi:cy="109.5"
             sodipodi:cx="95.25"
             id="path5619"
             style="fill:#c5eace;fill-opacity:1;stroke:none"
             sodipodi:type="arc" />
        </g>
        <g
           id="g5626"
           transform="translate(36.666664,56)">
          <rect
             style="fill:#85b08f;fill-opacity:1;stroke:none"
             id="rect5628"
             width="24"
             height="38.5"
             x="82.5"
             y="98.5"
             transform="translate(0,752.36218)" />
          <rect
             y="841.86218"
             x="82.5"
             height="38.5"
             width="24"
             id="rect5630"
             style="fill:#7fce90;fill-opacity:1;stroke:none" />
          <path
             sodipodi:type="arc"
             style="fill:#c5eace;fill-opacity:1;stroke:none"
             id="path5632"
             sodipodi:cx="95.25"
             sodipodi:cy="109.5"
             sodipodi:rx="5.25"
             sodipodi:ry="4.5"
             d="m 100.5,109.5 c 0,2.48528 -2.350505,4.5 -5.25,4.5 -2.899495,0 -5.25,-2.01472 -5.25,-4.5 0,-2.48528 2.350505,-4.5 5.25,-4.5 2.899495,0 5.25,2.01472 5.25,4.5 z"
             transform="matrix(1.7619048,0,0,1.7777778,-73.571429,667.19551)" />
        </g>
        <g
           transform="translate(65.333328,56)"
           id="g5634">
          <rect
             transform="translate(0,752.36218)"
             y="98.5"
             x="82.5"
             height="38.5"
             width="24"
             id="rect5636"
             style="fill:#85b08f;fill-opacity:1;stroke:none" />
          <rect
             style="fill:#7fce90;fill-opacity:1;stroke:none"
             id="rect5638"
             width="24"
             height="38.5"
             x="82.5"
             y="841.86218" />
          <path
             transform="matrix(1.7619048,0,0,1.7777778,-73.571429,667.19551)"
             d="m 100.5,109.5 c 0,2.48528 -2.350505,4.5 -5.25,4.5 -2.899495,0 -5.25,-2.01472 -5.25,-4.5 0,-2.48528 2.350505,-4.5 5.25,-4.5 2.899495,0 5.25,2.01472 5.25,4.5 z"
             sodipodi:ry="4.5"
             sodipodi:rx="5.25"
             sodipodi:cy="109.5"
             sodipodi:cx="95.25"
             id="path5640"
             style="fill:#c5eace;fill-opacity:1;stroke:none"
             sodipodi:type="arc" />
        </g>
        <g
           transform="translate(94,56)"
           id="g5650">
          <rect
             transform="translate(0,752.36218)"
             y="98.5"
             x="82.5"
             height="38.5"
             width="24"
             id="rect5652"
             style="fill:#85b08f;fill-opacity:1;stroke:none" />
          <rect
             style="fill:#7fce90;fill-opacity:1;stroke:none"
             id="rect5654"
             width="24"
             height="38.5"
             x="82.5"
             y="841.86218" />
          <path
             transform="matrix(1.7619048,0,0,1.7777778,-73.571429,667.19551)"
             d="m 100.5,109.5 c 0,2.48528 -2.350505,4.5 -5.25,4.5 -2.899495,0 -5.25,-2.01472 -5.25,-4.5 0,-2.48528 2.350505,-4.5 5.25,-4.5 2.899495,0 5.25,2.01472 5.25,4.5 z"
             sodipodi:ry="4.5"
             sodipodi:rx="5.25"
             sodipodi:cy="109.5"
             sodipodi:cx="95.25"
             id="path5656"
             style="fill:#c5eace;fill-opacity:1;stroke:none"
             sodipodi:type="arc" />
        </g>
      </g>
    </g>
  </g>
</svg>
