<?xml version="1.0" encoding="UTF-8" standalone="no"?>
<!-- Created with Inkscape (http://www.inkscape.org/) -->

<svg
   xmlns:dc="http://purl.org/dc/elements/1.1/"
   xmlns:cc="http://creativecommons.org/ns#"
   xmlns:rdf="http://www.w3.org/1999/02/22-rdf-syntax-ns#"
   xmlns:svg="http://www.w3.org/2000/svg"
   xmlns="http://www.w3.org/2000/svg"
   xmlns:xlink="http://www.w3.org/1999/xlink"
   xmlns:sodipodi="http://sodipodi.sourceforge.net/DTD/sodipodi-0.dtd"
   xmlns:inkscape="http://www.inkscape.org/namespaces/inkscape"
   width="200"
   height="200"
   id="svg5050"
   version="1.1"
   inkscape:version="0.48.5 r10040"
   sodipodi:docname="register.svg"
   inkscape:export-filename="/Users/odoo/Code/mktng/img/demo/register_cash.png"
   inkscape:export-xdpi="90"
   inkscape:export-ydpi="90">
  <defs
     id="defs5052">
    <linearGradient
       id="linearGradient5593">
      <stop
         style="stop-color:#303139;stop-opacity:1;"
         offset="0"
         id="stop5595" />
      <stop
         style="stop-color:#545663;stop-opacity:0;"
         offset="1"
         id="stop5597" />
    </linearGradient>
    <linearGradient
       inkscape:collect="always"
       xlink:href="#linearGradient5593"
       id="linearGradient5599"
       x1="143.54268"
       y1="902.45551"
       x2="143.54266"
       y2="939.2251"
       gradientUnits="userSpaceOnUse"
       gradientTransform="translate(-47.376155,85.559921)" />
  </defs>
  <sodipodi:namedview
     id="base"
     pagecolor="#ffffff"
     bordercolor="#666666"
     borderopacity="1.0"
     inkscape:pageopacity="0.0"
     inkscape:pageshadow="2"
     inkscape:zoom="1.4142136"
     inkscape:cx="167.21226"
     inkscape:cy="122.26094"
     inkscape:document-units="px"
     inkscape:current-layer="layer1"
     showgrid="false"
     inkscape:window-width="1280"
     inkscape:window-height="707"
     inkscape:window-x="0"
     inkscape:window-y="0"
     inkscape:window-maximized="1" />
  <metadata
     id="metadata5055">
    <rdf:RDF>
      <cc:Work
         rdf:about="">
        <dc:format>image/svg+xml</dc:format>
        <dc:type
           rdf:resource="http://purl.org/dc/dcmitype/StillImage" />
        <dc:title></dc:title>
      </cc:Work>
    </rdf:RDF>
  </metadata>
  <g
     inkscape:label="Layer 1"
     inkscape:groupmode="layer"
     id="layer1"
     transform="translate(0,-852.36218)">
    <g
       id="g5823">
      <rect
         ry="4.5"
         y="881.9494"
         x="14.849245"
         height="148.49243"
         width="171.82695"
         id="rect5077"
         style="fill:#e9eaef;fill-opacity:1;stroke:none" />
      <rect
         style="fill:#c9cad1;fill-opacity:1;stroke:none"
         id="rect5587"
         width="171.82695"
         height="46.669056"
         x="14.849245"
         y="983.77277"
         ry="1.4142859" />
      <rect
         style="fill:url(#linearGradient5599);fill-opacity:1;stroke:none"
         id="rect5591"
         width="161.92744"
         height="37.476665"
         x="19.798988"
         y="988.01538"
         ry="1.1357145" />
      <rect
         ry="1.1357145"
         y="988.01538"
         x="19.798988"
         height="37.476665"
         width="161.92744"
         id="rect5589"
         style="fill:#545663;fill-opacity:1;stroke:none" />
    </g>
    <g
       id="g5762"
       transform="translate(-47.376155,38.059921)">
      <rect
         style="fill:#6f7283;fill-opacity:1;stroke:none"
         id="rect5611"
         width="151.42744"
         height="108.0061"
         x="71.67514"
         y="851.42609"
         ry="3.2730794" />
      <rect
         ry="3.1111577"
         y="851.26923"
         x="76.67514"
         height="102.66296"
         width="141.42744"
         id="rect5613"
         style="fill:#545663;fill-opacity:1;stroke:none" />
      <rect
         style="fill:#e9eaef;fill-opacity:1;stroke:none"
         id="rect5601"
         width="165.92744"
         height="41.476665"
         x="65.17514"
         y="948.95551"
         ry="1.2569329" />
      <rect
         ry="1.2569329"
         y="954.45551"
         x="65.17514"
         height="41.476665"
         width="165.92744"
         id="rect5603"
         style="fill:#c9cad1;fill-opacity:1;stroke:none" />
      <rect
         ry="1.2569329"
         y="972.36218"
         x="84"
         height="5.5"
         width="53"
         id="rect5605"
         style="fill:#e9eaef;fill-opacity:1;stroke:none" />
      <path
         transform="matrix(1,0,0,1.0416667,0,740.71635)"
         d="m 210,225.5 a 6.75,6 0 1 1 -13.5,0 6.75,6 0 1 1 13.5,0 z"
         sodipodi:ry="6"
         sodipodi:rx="6.75"
         sodipodi:cy="225.5"
         sodipodi:cx="203.25"
         id="path5609"
         style="fill:#545663;fill-opacity:1;stroke:none"
         sodipodi:type="arc" />
      <g
         transform="translate(0,-46)"
         id="g5728">
        <g
           transform="translate(8,56)"
           id="g5730">
          <rect
             style="fill:#85b08f;fill-opacity:1;stroke:none"
             id="rect5732"
             width="24"
             height="38.5"
             x="82.5"
             y="98.5"
             transform="translate(0,752.36218)" />
          <rect
             y="841.86218"
             x="82.5"
             height="38.5"
             width="24"
             id="rect5734"
             style="fill:#7fce90;fill-opacity:1;stroke:none" />
          <path
             sodipodi:type="arc"
             style="fill:#c5eace;fill-opacity:1;stroke:none"
             id="path5736"
             sodipodi:cx="95.25"
             sodipodi:cy="109.5"
             sodipodi:rx="5.25"
             sodipodi:ry="4.5"
             d="m 100.5,109.5 a 5.25,4.5 0 1 1 -10.5,0 5.25,4.5 0 1 1 10.5,0 z"
             transform="matrix(1.7619048,0,0,1.7777778,-73.571429,667.19551)" />
        </g>
        <g
           transform="translate(36.666664,56)"
           id="g5738">
          <rect
             transform="translate(0,752.36218)"
             y="98.5"
             x="82.5"
             height="38.5"
             width="24"
             id="rect5740"
             style="fill:#85b08f;fill-opacity:1;stroke:none" />
          <rect
             style="fill:#7fce90;fill-opacity:1;stroke:none"
             id="rect5742"
             width="24"
             height="38.5"
             x="82.5"
             y="841.86218" />
          <path
             transform="matrix(1.7619048,0,0,1.7777778,-73.571429,667.19551)"
             d="m 100.5,109.5 a 5.25,4.5 0 1 1 -10.5,0 5.25,4.5 0 1 1 10.5,0 z"
             sodipodi:ry="4.5"
             sodipodi:rx="5.25"
             sodipodi:cy="109.5"
             sodipodi:cx="95.25"
             id="path5744"
             style="fill:#c5eace;fill-opacity:1;stroke:none"
             sodipodi:type="arc" />
        </g>
        <g
           id="g5746"
           transform="translate(65.333328,56)">
          <rect
             style="fill:#85b08f;fill-opacity:1;stroke:none"
             id="rect5748"
             width="24"
             height="38.5"
             x="82.5"
             y="98.5"
             transform="translate(0,752.36218)" />
          <rect
             y="841.86218"
             x="82.5"
             height="38.5"
             width="24"
             id="rect5750"
             style="fill:#7fce90;fill-opacity:1;stroke:none" />
          <path
             sodipodi:type="arc"
             style="fill:#c5eace;fill-opacity:1;stroke:none"
             id="path5752"
             sodipodi:cx="95.25"
             sodipodi:cy="109.5"
             sodipodi:rx="5.25"
             sodipodi:ry="4.5"
             d="m 100.5,109.5 a 5.25,4.5 0 1 1 -10.5,0 5.25,4.5 0 1 1 10.5,0 z"
             transform="matrix(1.7619048,0,0,1.7777778,-73.571429,667.19551)" />
        </g>
        <g
           id="g5754"
           transform="translate(94,56)">
          <rect
             style="fill:#85b08f;fill-opacity:1;stroke:none"
             id="rect5756"
             width="24"
             height="38.5"
             x="82.5"
             y="98.5"
             transform="translate(0,752.36218)" />
          <rect
             y="841.86218"
             x="82.5"
             height="38.5"
             width="24"
             id="rect5758"
             style="fill:#7fce90;fill-opacity:1;stroke:none" />
          <path
             sodipodi:type="arc"
             style="fill:#c5eace;fill-opacity:1;stroke:none"
             id="path5760"
             sodipodi:cx="95.25"
             sodipodi:cy="109.5"
             sodipodi:rx="5.25"
             sodipodi:ry="4.5"
             d="m 100.5,109.5 a 5.25,4.5 0 1 1 -10.5,0 5.25,4.5 0 1 1 10.5,0 z"
             transform="matrix(1.7619048,0,0,1.7777778,-73.571429,667.19551)" />
        </g>
      </g>
      <g
         id="g5710">
        <g
           id="g5621"
           transform="translate(8,56)">
          <rect
             transform="translate(0,752.36218)"
             y="98.5"
             x="82.5"
             height="38.5"
             width="24"
             id="rect5615"
             style="fill:#85b08f;fill-opacity:1;stroke:none" />
          <rect
             style="fill:#7fce90;fill-opacity:1;stroke:none"
             id="rect5617"
             width="24"
             height="38.5"
             x="82.5"
             y="841.86218" />
          <path
             transform="matrix(1.7619048,0,0,1.7777778,-73.571429,667.19551)"
             d="m 100.5,109.5 a 5.25,4.5 0 1 1 -10.5,0 5.25,4.5 0 1 1 10.5,0 z"
             sodipodi:ry="4.5"
             sodipodi:rx="5.25"
             sodipodi:cy="109.5"
             sodipodi:cx="95.25"
             id="path5619"
             style="fill:#c5eace;fill-opacity:1;stroke:none"
             sodipodi:type="arc" />
        </g>
        <g
           id="g5626"
           transform="translate(36.666664,56)">
          <rect
             style="fill:#85b08f;fill-opacity:1;stroke:none"
             id="rect5628"
             width="24"
             height="38.5"
             x="82.5"
             y="98.5"
             transform="translate(0,752.36218)" />
          <rect
             y="841.86218"
             x="82.5"
             height="38.5"
             width="24"
             id="rect5630"
             style="fill:#7fce90;fill-opacity:1;stroke:none" />
          <path
             sodipodi:type="arc"
             style="fill:#c5eace;fill-opacity:1;stroke:none"
             id="path5632"
             sodipodi:cx="95.25"
             sodipodi:cy="109.5"
             sodipodi:rx="5.25"
             sodipodi:ry="4.5"
             d="m 100.5,109.5 a 5.25,4.5 0 1 1 -10.5,0 5.25,4.5 0 1 1 10.5,0 z"
             transform="matrix(1.7619048,0,0,1.7777778,-73.571429,667.19551)" />
        </g>
        <g
           transform="translate(65.333328,56)"
           id="g5634">
          <rect
             transform="translate(0,752.36218)"
             y="98.5"
             x="82.5"
             height="38.5"
             width="24"
             id="rect5636"
             style="fill:#85b08f;fill-opacity:1;stroke:none" />
          <rect
             style="fill:#7fce90;fill-opacity:1;stroke:none"
             id="rect5638"
             width="24"
             height="38.5"
             x="82.5"
             y="841.86218" />
          <path
             transform="matrix(1.7619048,0,0,1.7777778,-73.571429,667.19551)"
             d="m 100.5,109.5 a 5.25,4.5 0 1 1 -10.5,0 5.25,4.5 0 1 1 10.5,0 z"
             sodipodi:ry="4.5"
             sodipodi:rx="5.25"
             sodipodi:cy="109.5"
             sodipodi:cx="95.25"
             id="path5640"
             style="fill:#c5eace;fill-opacity:1;stroke:none"
             sodipodi:type="arc" />
        </g>
        <g
           transform="translate(94,56)"
           id="g5650">
          <rect
             transform="translate(0,752.36218)"
             y="98.5"
             x="82.5"
             height="38.5"
             width="24"
             id="rect5652"
             style="fill:#85b08f;fill-opacity:1;stroke:none" />
          <rect
             style="fill:#7fce90;fill-opacity:1;stroke:none"
             id="rect5654"
             width="24"
             height="38.5"
             x="82.5"
             y="841.86218" />
          <path
             transform="matrix(1.7619048,0,0,1.7777778,-73.571429,667.19551)"
             d="m 100.5,109.5 a 5.25,4.5 0 1 1 -10.5,0 5.25,4.5 0 1 1 10.5,0 z"
             sodipodi:ry="4.5"
             sodipodi:rx="5.25"
             sodipodi:cy="109.5"
             sodipodi:cx="95.25"
             id="path5656"
             style="fill:#c5eace;fill-opacity:1;stroke:none"
             sodipodi:type="arc" />
        </g>
      </g>
    </g>
  </g>
</svg>
